# xmcd
#
# Track frame offsets:
#	183
#	10295
#	21845
#	31923
#	41935
#	52040
#	63630
#	73195
#	83055
#	93633
#	104430
#	116373
#	128863
#	140685
#	153600
#	163938
#	178315
#	192893
#
# Disc length: 2717 seconds
# Revision: 4
# Processed by: cddbd v1.5.2PL0 Copyright (c) Steve Scherf et al.
# Submitted via: dBpowerAMP V12.0
#
DISCID=0c0a9b12
DTITLE=Barbara Mandrell - The Country Store Collection
DYEAR=1988
DGENRE=Country
TTITLE0=I´ve Been Lovin´ You Too Long
TTITLE1=Playing Aroune With Love
TTITLE2=After Closing Time
TTITLE3=Do Right Woman, Do Right Man
TTITLE4=Treat Him Right
TTITLE5=We´ve Got Everything But Love
TTITLE6=Tonight My Baby´s Coming Home
TTITLE7=In the Name of Love
TTITLE8=This Time I Almost Made It
TTITLE9=Show Me
TTITLE10=Lovin´ You Is Worth It
TTITLE11=The Midnight Oil
TTITLE12=Give a Little, Take a Little
TTITLE13=The Ten Commandments of Love
TTITLE14=Holdin´on (To the Love I´ve Got)
TTITLE15=Almost Persuaded
TTITLE16=I Love You, I Love You
TTITLE17=Break My Mind
EXTD=
EXTT0=
EXTT1=
EXTT2=
EXTT3=
EXTT4=
EXTT5=
EXTT6=
EXTT7=
EXTT8=
EXTT9=
EXTT10=
EXTT11=
EXTT12=
EXTT13=
EXTT14=
EXTT15=
EXTT16=
EXTT17=
PLAYORDER=
